<?xml version="1.0" encoding="utf-8"?>
<!-- Generator: Adobe Illustrator 24.2.1, SVG Export Plug-In . SVG Version: 6.00 Build 0)  -->
<svg version="1.1" id="Layer_1" xmlns="http://www.w3.org/2000/svg" xmlns:xlink="http://www.w3.org/1999/xlink" x="0px" y="0px"
	 viewBox="0 0 512 512" style="enable-background:new 0 0 512 512;" xml:space="preserve">
<style type="text/css">
	.st0{fill:#6DA0AB;}
	.st1{fill:#548691;}
	.st2{fill:#4AB19A;}
	.st3{fill:#3E9C87;}
	.st4{fill:#F6D546;}
	.st5{fill:#F5CF2E;}
	.st6{fill:#E0E0E2;}
	.st7{fill:#C6C5CA;}
</style>
<g id="coding-2">
	<path class="st0" d="M392,232H56c-8.8,0-16,7.2-16,16v224h368V248C408,239.2,400.8,232,392,232z"/>
	<path class="st1" d="M408,248v224h-32V248c0-8.8-7.2-16-16-16h32C400.8,232,408,239.2,408,248z"/>
	<path class="st2" d="M488,88v192c0,8.8-7.2,16-16,16H200c-8.8,0-16-7.2-16-16V88H488z"/>
	<path class="st3" d="M488,88v192c0,8.8-7.2,16-16,16h-32c8.8,0,16-7.2,16-16V88H488z"/>
	<path class="st4" d="M488,38v48H184V38c0-8.8,7.2-16,16-16h272C480.8,22,488,29.1,488,38z"/>
	<path class="st5" d="M488,40v48h-32V40c0-8.8-7.2-16-16-16h32C480.8,24,488,31.2,488,40z"/>
	<path class="st6" d="M423,456l-7,32H32l-7-32h15h160v8h48v-8h160H423z"/>
	<path class="st7" d="M423,456l-7,32h-32l7-32H423z"/>
	<path d="M472,16H200c-13.2,0-24,10.8-24,24v184H56c-13.2,0-24,10.8-24,24v200h-7c-2.4,0-4.7,1.1-6.2,3c-1.5,1.9-2.1,4.4-1.6,6.7
		l7,32c0.8,3.7,4.1,6.3,7.8,6.3h384c3.8,0,7-2.6,7.8-6.3l7-32c0.5-2.4-0.1-4.8-1.6-6.7c-1.5-1.9-3.8-2.9-6.2-3h-7V304h56
		c13.2,0,24-10.8,24-24V40C496,26.8,485.2,16,472,16L472,16z M48,248c0-4.4,3.6-8,8-8h120v40c0,13.2,10.8,24,24,24h200v144H248
		c-4.4,0-8,3.6-8,8h-32c0-4.4-3.6-8-8-8H48V248z M409.6,480H38.4L35,464h157c0,4.4,3.6,8,8,8h48c4.4,0,8-3.6,8-8h157L409.6,480z
		 M480,280c0,4.4-3.6,8-8,8H200c-4.4,0-8-3.6-8-8V96h288V280z M480,80H192V40c0-4.4,3.6-8,8-8h272c4.4,0,8,3.6,8,8V80z"/>
	<path d="M448,48h16v16h-16V48z"/>
	<path d="M416,48h16v16h-16V48z"/>
	<path d="M384,48h16v16h-16V48z"/>
	<path d="M290.3,138.3l-48,48c-3.1,3.1-3.1,8.2,0,11.3l48,48l11.3-11.3L259.3,192l42.3-42.3L290.3,138.3z"/>
	<path d="M381.7,138.3l-11.3,11.3l42.3,42.3l-42.3,42.3l11.3,11.3l48-48c3.1-3.1,3.1-8.2,0-11.3L381.7,138.3z"/>
	<path d="M304.4,261.3l48-144.1l15.2,5.1l-48,144.1L304.4,261.3z"/>
	<path d="M136,384h72v16h-72V384z"/>
	<path d="M64,384h56v16H64V384z"/>
	<path d="M64,416h112v16H64V416z"/>
	<path d="M304,384h80v16h-80V384z"/>
	<path d="M224,384h64v16h-64V384z"/>
	<path d="M192,416h192v16H192V416z"/>
	<path d="M64,288h96v16H64V288z"/>
	<path d="M64,256h96v16H64V256z"/>
</g>
</svg>
