<?xml version="1.0" encoding="utf-8"?>
<!-- Generator: Adobe Illustrator 24.2.1, SVG Export Plug-In . SVG Version: 6.00 Build 0)  -->
<svg version="1.1" id="Layer_1" xmlns="http://www.w3.org/2000/svg" xmlns:xlink="http://www.w3.org/1999/xlink" x="0px" y="0px"
	 viewBox="0 0 512 512" style="enable-background:new 0 0 512 512;" xml:space="preserve">
<style type="text/css">
	.st0{fill:#6DA0AB;}
	.st1{fill:#E0E0E2;}
	.st2{fill:#548691;}
	.st3{fill:#C6C5CA;}
	.st4{fill:#898890;}
	.st5{fill:#4AB19A;}
	.st6{fill:#C26E6E;}
	.st7{fill:#F4A0A0;}
	.st8{fill:#F6D546;}
</style>
<g id="computer_template">
	<path class="st0" d="M472,120H40c-8.8,0-16,7.2-16,16v224h464V136C488,127.2,480.8,120,472,120z"/>
	<path class="st1" d="M488,360v32c0,8.8-7.2,16-16,16H40c-8.8,0-16-7.2-16-16v-32H488z"/>
	<path class="st1" d="M344,456l24,32H144l24-32h32h112H344z"/>
	<path class="st0" d="M304,408l8,48H200l8-48H304z"/>
	<path class="st2" d="M488,136v224h-40V136c0-8.8-7.2-16-16-16h40C480.8,120,488,127.2,488,136z"/>
	<path class="st3" d="M488,360v32c0,8.8-7.2,16-16,16h-40c8.8,0,16-7.2,16-16v-32H488z"/>
	<path class="st3" d="M368,488h-40l-24-32h40L368,488z"/>
	<path class="st2" d="M312,456h-40l-8-48h40L312,456z"/>
	<path class="st4" d="M424,296h32v32h-32V296z"/>
	<path class="st5" d="M416,184h40v80h-40V184z"/>
	<path class="st5" d="M425.7,110.9l-9.1,9.1l-19.1,19.1l-56.6-56.6l28.2-28.2L425.7,110.9z"/>
	<path class="st6" d="M376,184h40v80h-40V184z"/>
	<path class="st6" d="M312.5,110.9l28.3-28.3l56.5,56.5l-28.3,28.3L312.5,110.9z"/>
	<path class="st5" d="M360,296h32v32h-32V296z"/>
	<path class="st7" d="M376,184v80h-40v-63.4l4.9-4.9l11.7-11.7H376z"/>
	<path class="st7" d="M369.1,167.4L352.6,184l-11.7,11.7l-4.9-4.9l-6.8-6.8L296,150.8V144v-16.6l16.6-16.6L369.1,167.4z"/>
	<path class="st8" d="M340.9,195.7l-4.9,4.9L312.6,224L296,207.4L272.6,184H296v-33.2l33.2,33.2l6.8,6.8L340.9,195.7z"/>
	<path class="st8" d="M336,200.6V264h-40v-56.6l16.6,16.6L336,200.6z"/>
	<path class="st6" d="M296,296h32v32h-32V296z"/>
	<path class="st8" d="M296,150.8V184h-23.4h-33.1l16.6-16.6L232.6,144h46.9h9.8h6.8V150.8z"/>
	<path class="st7" d="M296,127.4V144h-6.8h-9.8h-46.9l-4.9-4.9L216,127.4V104h80V127.4z"/>
	<path class="st6" d="M216,64h80v40h-80V64z"/>
	<path class="st5" d="M216,24h80v40h-80V24z"/>
	<path class="st8" d="M256,167.4L239.4,184L216,207.4V184h-33.2l33.2-33.2l6.8-6.8l4.9-4.9l4.9,4.9L256,167.4z"/>
	<path class="st7" d="M227.7,139.1l-4.9,4.9l-6.8,6.8L182.8,184H176h-16.6l-16.6-16.6l56.6-56.6l16.6,16.6L227.7,139.1z"/>
	<path class="st7" d="M184,296h32v32h-32V296z"/>
	<path class="st8" d="M216,207.4V264h-40v-80h6.8H216V207.4z"/>
	<path class="st6" d="M114.5,139.1l56.5-56.5l28.3,28.3l-56.5,56.5L114.5,139.1z"/>
	<path class="st7" d="M176,184v80h-40v-80h23.4H176z"/>
	<path class="st5" d="M171.1,82.6l-56.6,56.6L95.4,120l-9.1-9.1l56.6-56.6L171.1,82.6z"/>
	<path class="st8" d="M120,296h32v32h-32V296z"/>
	<path class="st6" d="M96,184h40v80H96V184z"/>
	<path class="st5" d="M56,184h40v80H56V184z"/>
	<path class="st1" d="M56,296h32v32H56V296z"/>
	<path d="M472,112h-38.6c0.4-2.5-0.3-5-2.1-6.8l-56.6-56.6c-3.1-3.1-8.2-3.1-11.4,0L304,108.2V24c0-4.4-3.6-8-8-8h-80
		c-4.4,0-8,3.6-8,8v84.2l-59.4-59.5c-3.1-3.1-8.2-3.1-11.4,0l-56.6,56.6c-1.8,1.8-2.5,4.3-2.1,6.8H40c-13.2,0-24,10.8-24,24v256
		c0,13.2,10.8,24,24,24h158.6l-5.4,32H168c-2.5,0-4.9,1.2-6.4,3.2l-24,32c-1.8,2.4-2.1,5.7-0.7,8.4c1.3,2.7,4.1,4.4,7.1,4.4h224
		c3,0,5.8-1.7,7.1-4.4c1.4-2.7,1.1-6-0.7-8.4l-24-32c-1.5-2-3.9-3.2-6.4-3.2h-25.2l-5.4-32H472c13.2,0,24-10.8,24-24V136
		C496,122.8,485.2,112,472,112L472,112z M369.1,65.6l45.3,45.3l-17,17l-45.3-45.3L369.1,65.6z M340.9,93.9l45.2,45.2l-17,17
		l-45.2-45.2L340.9,93.9z M304,130.7l8.6-8.6l45.3,45.3l-17,17L304,147.5V130.7z M368,192v64h-24v-52.2l11.8-11.8H368z M296,192
		c4.4,0,8-3.6,8-8v-13.9l25.6,25.6l-17,17L291.8,192H296z M328,219.8V256h-24v-29.3l2.9,3c3.2,3.1,8.2,3.1,11.4,0L328,219.8z
		 M224,32h64v24h-64V32z M224,72h64v24h-64V72z M224,112h64v24h-52.2L224,124.2V112z M261.7,161.8l-9.8-9.8H288v24h-29.3l3-2.9
		C264.8,170,264.8,164.9,261.7,161.8z M216,176h-13.9l25.6-25.6l17,17L224,188.2V184C224,179.6,220.4,176,216,176z M208,192v64h-24
		v-64H208z M216.4,139.1L179.5,176h-16.8l-8.6-8.6l45.3-45.3L216.4,139.1z M168,192v64h-24v-64H168z M188.1,110.9l-45.2,45.2l-17-17
		l45.2-45.2L188.1,110.9z M142.9,65.6l17,17l-45.3,45.3l-17-17L142.9,65.6z M340,464l12,16H160l12-16H340z M209.4,448l5.4-32h82.4
		l5.4,32H209.4z M480,392c0,4.4-3.6,8-8,8H40c-4.4,0-8-3.6-8-8v-24h448V392z M480,352H32V136c0-4.4,3.6-8,8-8h52.2l48,48H56
		c-4.4,0-8,3.6-8,8v80c0,4.4,3.6,8,8,8h160c4.4,0,8-3.6,8-8v-53.3l18.7-18.7h26.6l18.7,18.7V264c0,4.4,3.6,8,8,8h160
		c4.4,0,8-3.6,8-8v-80c0-4.4-3.6-8-8-8h-84.2l48-48H472c4.4,0,8,3.6,8,8V352z M128,192v64h-24v-64H128z M88,192v64H64v-64H88z
		 M384,256v-64h24v64H384z M424,256v-64h24v64H424z"/>
	<path d="M56,336h32c4.4,0,8-3.6,8-8v-32c0-4.4-3.6-8-8-8H56c-4.4,0-8,3.6-8,8v32C48,332.4,51.6,336,56,336z M64,304h16v16H64V304z"
		/>
	<path d="M120,336h32c4.4,0,8-3.6,8-8v-32c0-4.4-3.6-8-8-8h-32c-4.4,0-8,3.6-8,8v32C112,332.4,115.6,336,120,336z M128,304h16v16
		h-16V304z"/>
	<path d="M184,336h32c4.4,0,8-3.6,8-8v-32c0-4.4-3.6-8-8-8h-32c-4.4,0-8,3.6-8,8v32C176,332.4,179.6,336,184,336z M192,304h16v16
		h-16V304z"/>
	<path d="M296,336h32c4.4,0,8-3.6,8-8v-32c0-4.4-3.6-8-8-8h-32c-4.4,0-8,3.6-8,8v32C288,332.4,291.6,336,296,336z M304,304h16v16
		h-16V304z"/>
	<path d="M360,336h32c4.4,0,8-3.6,8-8v-32c0-4.4-3.6-8-8-8h-32c-4.4,0-8,3.6-8,8v32C352,332.4,355.6,336,360,336z M368,304h16v16
		h-16V304z"/>
	<path d="M424,336h32c4.4,0,8-3.6,8-8v-32c0-4.4-3.6-8-8-8h-32c-4.4,0-8,3.6-8,8v32C416,332.4,419.6,336,424,336z M432,304h16v16
		h-16V304z"/>
	<path d="M240,304h32v16h-32V304z"/>
</g>
</svg>
