<?xml version="1.0" encoding="utf-8"?>
<!-- Generator: Adobe Illustrator 24.2.1, SVG Export Plug-In . SVG Version: 6.00 Build 0)  -->
<svg version="1.1" id="Layer_1" xmlns="http://www.w3.org/2000/svg" xmlns:xlink="http://www.w3.org/1999/xlink" x="0px" y="0px"
	 viewBox="0 0 512 512" style="enable-background:new 0 0 512 512;" xml:space="preserve">
<style type="text/css">
	.st0{fill:#6DA0AB;}
	.st1{fill:#E0E0E2;}
	.st2{fill:#C6C5CA;}
	.st3{fill:#548691;}
	.st4{fill:#C0AB91;}
	.st5{fill:#B39A7C;}
	.st6{fill:#F6D546;}
	.st7{fill:#F5CF2E;}
</style>
<g id="device">
	<path class="st0" d="M312,24h160v104H312V24z"/>
	<path class="st1" d="M184,424v16c0,8.8-7.2,16-16,16H40c-8.8,0-16-7.2-16-16v-16H184z"/>
	<path class="st0" d="M184,360v64H24v-64c0-8.8,7.2-16,16-16h128C176.8,344,184,351.2,184,360z"/>
	<path class="st1" d="M127.4,456l7.8,32H72.7l7.8-32H127.4z"/>
	<path class="st2" d="M184,424v16c0,8.8-7.2,16-16,16h-16c8.8,0,16-7.2,16-16v-16H184z"/>
	<path class="st3" d="M184,360v64h-16v-64c0-8.8-7.2-16-16-16h16C176.8,344,184,351.2,184,360z"/>
	<path class="st2" d="M135.3,488h-16l-7.8-32h16L135.3,488z"/>
	<path class="st1" d="M487,120l-7,32H304l-7-32h15h64v8h32v-8h64H487z"/>
	<path class="st3" d="M456,24h16v104h-16V24z"/>
	<path class="st1" d="M487,120l-7,32H304l-7-32h15h64v8h32v-8h64H487z"/>
	<path class="st2" d="M487,120l-7,32h-16l7-32H487z"/>
	<path class="st4" d="M310,274.5c-0.7,2.3-1.6,4.5-2.7,6.6l16.1,20.6l-21.6,21.6l-20.6-16.1c-2.1,1.1-4.4,2-6.6,2.7l-3.3,26h-30.4
		l-3.3-26c-2.3-0.7-4.5-1.6-6.6-2.7l-20.6,16.1l-21.6-21.6l16.1-20.6c-1.1-2.1-2-4.4-2.7-6.6l-26-3.3v-30.4l26-3.3
		c0.7-2.3,1.6-4.5,2.7-6.6l-16.1-20.6l21.6-21.6l20.6,16.1c2.1-1.1,4.4-2,6.6-2.7l3.3-26h30.4l3.3,26c2.3,0.7,4.5,1.6,6.6,2.7
		l20.6-16.1l21.6,21.6l-16.1,20.6c1.1,2.1,2,4.4,2.7,6.6l26,3.3v30.4L310,274.5z"/>
	<path class="st5" d="M310,274.5c-0.7,2.3-1.6,4.5-2.7,6.6l16.1,20.6l-21.6,21.6l-20.6-16.1c-2.1,1.1-4.4,2-6.6,2.7l-3.3,26h-30.4
		l-3.3-26c-2.3-0.7-4.5-1.6-6.6-2.7l-20.6,16.1l-11-11c31.9-10.5,59.9-30.1,80.7-56.4c13.7-17.8,23.6-38.1,29.3-59.8l14.1,14.1
		l-16.1,20.6c1.1,2.1,2,4.4,2.7,6.6l26,3.3v30.4L310,274.5z"/>
	<circle class="st6" cx="256" cy="256" r="32"/>
	<path class="st0" d="M40,24h96c8.8,0,16,7.2,16,16v128c0,8.8-7.2,16-16,16H40c-8.8,0-16-7.2-16-16V40C24,31.2,31.2,24,40,24z"/>
	<path class="st0" d="M408,328h64c8.8,0,16,7.2,16,16v128c0,8.8-7.2,16-16,16h-64c-8.8,0-16-7.2-16-16V344
		C392,335.2,399.2,328,408,328z"/>
	<path class="st6" d="M464,328v8c0,8.8-7.2,16-16,16h-16c-8.8,0-16-7.2-16-16v-8H464z"/>
	<path class="st3" d="M488,344v128c0,8.8-7.2,16-16,16h-16c8.8,0,16-7.2,16-16V344c0-8.8-7.2-16-16-16h16
		C480.8,328,488,335.2,488,344z"/>
	<path class="st7" d="M464,328v8c0,8.8-7.2,16-16,16h-16c8.8,0,16-7.2,16-16v-8H464z"/>
	<path class="st3" d="M152,40v128c0,8.8-7.2,16-16,16h-32c8.8,0,16-7.2,16-16V40c0-8.8-7.2-16-16-16h32C144.8,24,152,31.2,152,40z"
		/>
	<path class="st7" d="M288,256c0,17.7-14.3,32-31.9,32c-12.6,0-24-7.4-29.2-18.9c4.1,1.9,8.6,2.9,13.1,2.9c17.7,0,32-14.3,32-32
		c0-4.5-1-9-2.9-13.1C280.6,232,288,243.4,288,256z"/>
	<path d="M493.2,115c-1.5-1.9-3.8-2.9-6.2-3h-7V24c0-4.4-3.6-8-8-8H312c-4.4,0-8,3.6-8,8v88h-7c-2.4,0-4.7,1.1-6.2,3
		c-1.5,1.9-2.1,4.4-1.6,6.7l7,32c0.8,3.7,4.1,6.3,7.8,6.3h176c3.8,0,7-2.6,7.8-6.3l7-32C495.3,119.3,494.7,116.8,493.2,115
		L493.2,115z M320,32h144v80h-56c-4.4,0-8,3.6-8,8h-16c0-4.4-3.6-8-8-8h-56V32z M473.6,144H310.4l-3.4-16h61c0,4.4,3.6,8,8,8h32
		c4.4,0,8-3.6,8-8h61L473.6,144z"/>
	<path d="M168,336H40c-13.2,0-24,10.8-24,24v80c0,13.2,10.8,24,24,24h30.3L65,486.1c-0.6,2.4-0.1,4.9,1.4,6.9c1.5,1.9,3.9,3.1,6.3,3
		h62.6c2.5,0,4.8-1.1,6.3-3c1.5-1.9,2.1-4.5,1.4-6.9l-5.4-22.1H168c13.2,0,24-10.8,24-24v-80C192,346.8,181.2,336,168,336z
		 M82.9,480l3.9-16h34.4l3.9,16H82.9z M176,440c0,4.4-3.6,8-8,8H40c-4.4,0-8-3.6-8-8v-8h144V440z M176,416H32v-56c0-4.4,3.6-8,8-8
		h128c4.4,0,8,3.6,8,8V416z"/>
	<path d="M472,320h-64c-13.2,0-24,10.8-24,24v128c0,13.2,10.8,24,24,24h64c13.2,0,24-10.8,24-24V344C496,330.8,485.2,320,472,320z
		 M456,336c0,4.4-3.6,8-8,8h-16c-4.4,0-8-3.6-8-8H456z M480,472c0,4.4-3.6,8-8,8h-64c-4.4,0-8-3.6-8-8V344c0-4.4,3.6-8,8-8
		c0,13.2,10.8,24,24,24h16c13.2,0,24-10.8,24-24c4.4,0,8,3.6,8,8V472z"/>
	<path d="M136,16H40c-13.2,0-24,10.8-24,24v128c0,13.2,10.8,24,24,24h96c13.2,0,24-10.8,24-24V40C160,26.8,149.2,16,136,16z
		 M144,168c0,4.4-3.6,8-8,8H40c-4.4,0-8-3.6-8-8V40c0-4.4,3.6-8,8-8h96c4.4,0,8,3.6,8,8V168z"/>
	<path d="M80,144h16v16H80V144z"/>
	<path d="M337,232.8l-19.2-2.4l11.9-15.3c2.5-3.2,2.2-7.7-0.7-10.6L307.4,183c-2.8-2.9-7.4-3.2-10.6-0.7l-15.3,11.9l-2.4-19.2
		c-0.5-4-3.9-7-8-7h-30.4c-4.1,0-7.5,3-8,7l-2.4,19.2l-15.3-11.9c-3.2-2.5-7.7-2.1-10.6,0.7L183,204.6c-2.9,2.8-3.2,7.4-0.7,10.6
		l11.9,15.3l-19.2,2.4c-4,0.5-7,3.9-7,8v30.4c0,4.1,3,7.5,7,8l19.2,2.4l-11.9,15.3c-2.5,3.2-2.2,7.7,0.7,10.6l21.5,21.5
		c2.8,2.9,7.4,3.2,10.6,0.7l15.3-11.9l2.4,19.2c0.5,4,3.9,7,8,7h30.4c4.1,0,7.5-3,8-7l2.4-19.2l15.3,11.9c3.2,2.5,7.7,2.1,10.6-0.7
		l21.5-21.5c2.9-2.8,3.2-7.4,0.7-10.6l-11.9-15.3l19.2-2.4c4-0.5,7-3.9,7-8v-30.4C344,236.7,341,233.3,337,232.8L337,232.8z
		 M328,264.2l-19,2.4c-3,0.4-5.6,2.4-6.6,5.4c-0.7,1.9-1.5,3.8-2.4,5.7c-1.4,2.7-1,6,0.9,8.4l11.8,15.1l-11.6,11.6L286,301
		c-2.4-1.9-5.7-2.3-8.4-0.9c-1.9,0.9-3.8,1.7-5.8,2.4c-2.9,1-4.9,3.5-5.3,6.6l-2.4,19h-16.3l-2.4-19c-0.4-3-2.4-5.6-5.3-6.6
		c-2-0.7-3.9-1.5-5.8-2.4c-2.7-1.4-6-1-8.4,0.9l-15.1,11.8l-11.6-11.6L211,286c1.9-2.4,2.3-5.7,0.9-8.4c-0.9-1.8-1.7-3.8-2.4-5.7
		c-1-2.9-3.5-5-6.6-5.4l-19-2.4v-16.3l19-2.4c3-0.4,5.6-2.4,6.6-5.4c0.7-1.9,1.5-3.8,2.4-5.7c1.4-2.7,1-6-0.9-8.4l-11.8-15.1
		l11.6-11.6L226,211c2.4,1.9,5.7,2.3,8.4,0.9c1.8-0.9,3.8-1.7,5.7-2.4c2.9-1,5-3.5,5.4-6.6l2.4-19h16.3l2.4,19
		c0.4,3,2.4,5.6,5.4,6.6c1.9,0.7,3.8,1.5,5.7,2.4c2.7,1.4,6,1,8.4-0.9l15.1-11.8l11.6,11.6L301,226c-1.9,2.4-2.3,5.7-0.9,8.4
		c0.9,1.8,1.7,3.8,2.4,5.7c1,2.9,3.5,5,6.6,5.4l19,2.4L328,264.2z"/>
	<path d="M296,256c0-22.1-17.9-40-40-40s-40,17.9-40,40s17.9,40,40,40C278.1,296,296,278.1,296,256z M256,280c-13.3,0-24-10.7-24-24
		c0-13.3,10.7-24,24-24c13.3,0,24,10.7,24,24C280,269.3,269.3,280,256,280z"/>
	<path d="M360,240v16h32c4.4,0,8-3.6,8-8v-72h-16v64H360z"/>
	<path d="M88,256v64h16v-56h48v-16H96C91.6,248,88,251.6,88,256z"/>
	<path d="M248,152h16v-48c0-4.4-3.6-8-8-8h-80v16h72V152z"/>
	<path d="M264,360h-16v64c0,4.4,3.6,8,8,8h112v-16H264V360z"/>
</g>
</svg>
