<?xml version="1.0" encoding="utf-8"?>
<!-- Generator: Adobe Illustrator 24.2.1, SVG Export Plug-In . SVG Version: 6.00 Build 0)  -->
<svg version="1.1" id="Layer_1" xmlns="http://www.w3.org/2000/svg" xmlns:xlink="http://www.w3.org/1999/xlink" x="0px" y="0px"
	 viewBox="0 0 300 359" style="enable-background:new 0 0 300 359;" xml:space="preserve">
<style type="text/css">
	.st0{fill:#57A4FF;}
	.st1{fill:#4AB19A;}
	.st2{fill:#3E9C87;}
	.st3{fill:#F6D546;}
	.st4{fill:#F5CF2E;}
	.st5{fill:#F18989;}
	.st6{fill:#C26E6E;}
</style>
<g id="performance">
	<circle class="st0" cx="150" cy="113" r="24"/>
	<path class="st1" d="M222,153c0.5,30.2-5.4,60.2-17.2,88c-4,9-9,17.6-15,25.4c-1.8-36.6-19-65.4-39.8-65.4s-38,28.7-39.8,65.4
		c-6-7.8-11.1-16.3-15-25.4c-11.8-27.8-17.7-57.8-17.2-88c0-75.1,72-136,72-136S222,77.9,222,153L222,153z M174,113
		c0-13.3-10.7-24-24-24s-24,10.7-24,24s10.7,24,24,24S174,126.3,174,113z"/>
	<path class="st2" d="M150,17c-5.6,4.9-10.9,10.1-16,15.6c21.1,22.7,56,68.2,56,120.4c0.2,24.1-3.4,48.1-10.6,71.1
		c6.4,13.2,9.9,27.6,10.4,42.2c6-7.8,11.1-16.3,15-25.4c11.8-27.8,17.7-57.8,17.2-88C222,77.9,150,17,150,17L150,17z"/>
	<path class="st3" d="M270,177l16,120h-32l-24-56h-25.2c11.8-27.8,17.7-57.8,17.2-88L270,177z"/>
	<path class="st4" d="M286,297h-32l-16-120l-16.6-8.2c0.4-5.1,0.6-10.4,0.6-15.8l48,24L286,297z"/>
	<path class="st5" d="M189.8,266.4c0.2,2.2,0.2,4.4,0.2,6.6c0,39.8-40,72-40,72s-40-32.2-40-72c0-2.2,0.1-4.5,0.2-6.6
		c1.8-36.6,19-65.4,39.8-65.4S188,229.7,189.8,266.4z"/>
	<path class="st6" d="M190,273c0,39.8-40,72-40,72c-2.8-2.3-5.5-4.8-8-7.4c11.7-11.7,32-36.2,32-64.6c0-2.2-0.1-4.5-0.2-6.6
		c-1.5-31.8-14.7-57.7-31.8-63.9c2.6-1,5.3-1.4,8-1.4c20.8,0,38,28.7,39.8,65.4C189.9,268.5,190,270.8,190,273z"/>
	<path class="st3" d="M95.2,241H70l-24,56H14l16-120l48-24C77.5,183.2,83.4,213.2,95.2,241z"/>
	<path d="M277.9,176c-0.3-2.6-1.9-4.9-4.3-6.1l-43.9-22c-3-75.4-71.5-134.5-74.5-137c-3-2.6-7.4-2.6-10.4,0
		c-3,2.5-71.5,61.5-74.5,137l-43.9,22c-2.4,1.2-4,3.5-4.3,6.1l-16,120c-0.3,2.3,0.4,4.6,1.9,6.3c1.5,1.7,3.7,2.7,6,2.7h32
		c3.2,0,6.1-1.9,7.4-4.9L75.3,249h14.8c3.4,6.9,7.4,13.5,12.1,19.7c-0.1,1.4-0.2,2.9-0.2,4.3c0,43.1,41.2,76.8,43,78.2
		c3,2.3,7.1,2.3,10.1,0c1.8-1.4,43-35.1,43-78.2c0-1.4-0.1-2.9-0.2-4.3c4.6-6.2,8.7-12.8,12.1-19.7h14.8l21.9,51.1
		c1.3,3,4.1,4.9,7.4,4.9h32c2.3,0,4.5-1,6-2.7s2.2-4,1.9-6.3L277.9,176z M70,233c-3.2,0-6.1,1.9-7.4,4.9L40.7,289H23.1l14.2-106.7
		l33-16.6c0.9,22.9,5.3,45.6,13,67.3H70z M150,334.2c-10.2-9.7-32-33.8-32-61.2c0-37.7,16.9-64,32-64s32,26.3,32,64
		C182,300.4,160.2,324.5,150,334.2z M194.7,243.5c-7-29.8-24.1-50.5-44.7-50.5s-37.8,20.6-44.7,50.5C92,215.2,85.4,184.2,86,153
		c0-59,47.9-109.8,64-125.1C166.1,43.2,214,94,214,153C214.6,184.2,208,215.2,194.7,243.5z M259.3,289l-21.9-51.1
		c-1.3-3-4.1-4.9-7.4-4.9h-13.4c7.6-21.7,12-44.3,13-67.3l33,16.6L276.9,289H259.3z"/>
	<path d="M150,145c17.7,0,32-14.3,32-32s-14.3-32-32-32s-32,14.3-32,32S132.3,145,150,145z M150,97c8.8,0,16,7.2,16,16
		s-7.2,16-16,16s-16-7.2-16-16S141.2,97,150,97z"/>
	<path d="M142,225h16v16h-16V225z"/>
	<path d="M142,257h16v56h-16V257z"/>
</g>
</svg>
